# Blender 3.4.1
# www.blender.org
mtllib Pillar.mtl
o Cylinder001
v 7.515000 1.500001 -3.880000
v 6.842000 1.500000 -2.954000
v 5.851000 1.500000 -2.382000
v 4.712000 1.500000 -2.262000
v 3.624000 1.500000 -2.616000
v 2.773000 1.500001 -3.382000
v 2.307000 1.500001 -4.427999
v 2.307000 1.500001 -5.572000
v 2.773000 1.500001 -6.618000
v 3.624000 1.500001 -7.383999
v 4.712000 1.500001 -7.737999
v 5.851000 1.500001 -7.618000
v 6.842000 1.500001 -7.045999
v 7.515000 1.500001 -6.119999
v 7.753000 1.500001 -5.000000
v 7.515000 21.500002 -6.119997
v 7.753000 21.500000 -4.999997
v 6.842000 21.500002 -7.045996
v 5.851000 21.500002 -7.617997
v 4.712000 21.500002 -7.737997
v 3.624000 21.500002 -7.383996
v 2.773000 21.500002 -6.617997
v 2.307000 21.500000 -5.571997
v 2.307000 21.500000 -4.427997
v 2.773000 21.500000 -3.381996
v 3.624000 21.500000 -2.615996
v 4.712000 21.500000 -2.261997
v 5.851000 21.500000 -2.381996
v 6.842000 21.500000 -2.953996
v 7.515000 21.500000 -3.879997
v 1.000000 0.000000 -1.000000
v 1.000000 0.000001 -9.000000
v 9.000000 0.000001 -9.000000
v 9.000000 0.000000 -1.000000
v 2.000000 1.500000 -2.000000
v 8.000000 1.500000 -2.000000
v 8.000000 1.500001 -8.000000
v 2.000000 1.500001 -8.000000
v 9.000000 1.000000 -1.000000
v 1.000000 1.000000 -1.000000
v 9.000000 1.000001 -9.000000
v 1.000000 1.000001 -9.000000
v 8.500000 1.000000 -1.500000
v 1.500000 1.000000 -1.500000
v 8.500000 1.000001 -8.500000
v 1.500000 1.000001 -8.500000
vn 0.6838 -0.6631 0.3045
vn 0.5007 -0.6632 0.5563
vn 0.2313 -0.6632 0.7118
vn -0.0780 -0.6633 0.7443
vn -0.3743 -0.6632 0.6481
vn -0.6054 -0.6632 0.4401
vn -0.7321 -0.6631 0.1557
vn -0.7321 -0.6631 -0.1557
vn -0.6054 -0.6632 -0.4401
vn -0.3743 -0.6632 -0.6481
vn -0.0783 -0.6631 -0.7444
vn 0.2313 -0.6632 -0.7118
vn 0.5007 -0.6632 -0.5563
vn 0.6838 -0.6631 -0.3045
vn 0.7485 -0.6632 -0.0000
vn 0.6838 0.6631 -0.3045
vn 0.7485 0.6632 -0.0000
vn 0.5007 0.6632 -0.5563
vn 0.2313 0.6632 -0.7118
vn -0.0783 0.6631 -0.7444
vn -0.3743 0.6632 -0.6481
vn -0.6054 0.6632 -0.4401
vn -0.7321 0.6631 -0.1557
vn -0.7321 0.6631 0.1557
vn -0.6054 0.6632 0.4401
vn -0.3743 0.6632 0.6481
vn -0.0783 0.6631 0.7444
vn 0.2313 0.6632 0.7118
vn 0.5007 0.6632 0.5563
vn 0.6838 0.6631 0.3045
vn -0.5774 -0.5774 0.5774
vn -0.5774 -0.5774 -0.5774
vn 0.5774 -0.5774 -0.5774
vn 0.5774 -0.5774 0.5774
vn -0.3002 0.9054 0.3002
vn 0.3002 0.9054 0.3002
vn 0.3002 0.9054 -0.3002
vn -0.3002 0.9054 -0.3002
vn 0.5774 0.5773 0.5774
vn -0.5774 0.5773 0.5774
vn 0.5774 0.5773 -0.5774
vn -0.5774 0.5773 -0.5774
vn -0.5774 0.5774 0.5773
vn 0.5773 0.5774 0.5774
vn 0.1101 0.9878 0.1101
vn -0.1101 0.9878 0.1101
vn 0.5775 0.5774 -0.5772
vn 0.1101 0.9878 -0.1101
vn 0.5773 0.5774 -0.5773
vn -0.5773 0.5774 -0.5773
vn -0.1101 0.9878 -0.1101
vt 0.253057 0.450930
vt 0.785424 0.552365
vt 0.284500 0.447635
vt 0.000000 1.000000
vt 0.813560 0.552365
vt 0.314553 0.457409
vt 0.028508 1.000000
vt 0.338061 0.478572
vt 0.060127 1.000000
vt 0.350897 0.507447
vt 0.089331 1.000000
vt 0.350897 0.539069
vt 0.200503 0.447635
vt 0.111130 1.000000
vt 0.338036 0.567961
vt 0.171614 0.447635
vt 0.314553 0.589099
vt 0.140019 0.447635
vt 0.284471 0.598860
vt 0.813560 0.552365
vt 0.111130 0.447635
vt 0.253023 0.595545
vt 0.835359 0.552365
vt 0.225654 0.579752
vt 0.864563 0.552365
vt 0.207072 0.554154
vt 0.896182 0.552365
vt 0.200503 0.523243
vt 0.701899 0.552365
vt 0.924690 0.552365
vt 0.207076 0.492318
vt 0.724300 0.552365
vt 0.225669 0.466739
vt 0.753848 0.552365
vt 0.724300 0.000000
vt 0.155564 0.009753
vt 0.753848 0.000000
vt 0.074494 0.056547
vt 0.701899 0.000000
vt 0.924690 0.000000
vt 0.248638 0.000000
vt 0.896182 0.000000
vt 0.337595 0.028931
vt 0.864563 0.000000
vt 0.407181 0.091576
vt 0.835359 0.000000
vt 0.445177 0.177046
vt 0.813560 0.000000
vt 0.111130 1.000000
vt 0.445177 0.270649
vt 0.140019 1.000000
vt 0.407107 0.356173
vt 0.171614 1.000000
vt 0.337595 0.418742
vt 0.200503 1.000000
vt 0.111130 0.447635
vt 0.248551 0.447635
vt 0.089331 0.447635
vt 0.155464 0.437821
vt 0.060127 0.447635
vt 0.074448 0.391074
vt 0.028508 0.447635
vt 0.019445 0.315302
vt 0.000000 0.447635
vt 0.813560 0.000000
vt 0.000000 0.223803
vt 0.785424 0.000000
vt 0.019457 0.132265
vt 0.701899 0.545534
vt 0.413087 0.703590
vt 0.701899 0.000000
vt 0.445177 0.545534
vt 0.350897 0.447635
vt 0.445177 0.000000
vt 0.445177 0.288812
vt 0.445177 0.545534
vt 0.350897 0.703590
vt 0.701899 0.288812
vt 0.413087 0.447635
vt 0.445177 0.799182
vt 0.669809 0.064181
vt 0.382988 0.656222
vt 0.669809 0.256722
vt 0.477267 0.256722
vt 0.477267 0.064181
vt 0.382988 0.463680
vt 0.445177 0.447635
vt 0.477267 0.799182
vt 0.701899 0.288812
vt 0.445177 0.703590
vt 0.701899 0.032090
vt 0.477267 0.545534
vt 0.382988 0.703590
vt 0.445177 0.288812
vt 0.382988 0.447635
vt 0.445177 0.032090
vt 0.685854 0.272767
vt 0.685854 0.048135
vt 0.399033 0.672267
vt 0.461222 0.272767
vt 0.461222 0.048135
vt 0.399033 0.447635
s 1
usemtl wire_115115115
f 1/1/1 2/3/2 3/6/3 4/8/4 5/10/5 6/12/6 7/15/7 8/17/8 9/19/9 10/22/10 11/24/11 12/26/12 13/28/13 14/31/14 15/33/15
f 15/34/15 14/32/14 16/35/16 17/37/17
f 14/32/14 13/29/13 18/39/18 16/35/16
f 13/30/13 12/27/12 19/42/19 18/40/18
f 12/27/12 11/25/11 20/44/20 19/42/19
f 11/25/11 10/23/10 21/46/21 20/44/20
f 10/23/10 9/20/9 22/48/22 21/46/21
f 9/21/9 8/18/8 23/51/23 22/49/22
f 8/18/8 7/16/7 24/53/24 23/51/23
f 7/16/7 6/13/6 25/55/25 24/53/24
f 6/14/6 5/11/5 26/58/26 25/56/25
f 5/11/5 4/9/4 27/60/27 26/58/26
f 4/9/4 3/7/3 28/62/28 27/60/27
f 3/7/3 2/4/2 29/64/29 28/62/28
f 2/5/2 1/2/1 30/67/30 29/65/29
f 1/2/1 15/34/15 17/37/17 30/67/30
f 30/68/30 17/38/17 16/36/16 18/41/18 19/43/19 20/45/20 21/47/21 22/50/22 23/52/23 24/54/24 25/57/25 26/59/26 27/61/27 28/63/28 29/66/29
f 31/69/31 32/72/32 33/75/33 34/78/34
f 35/81/35 36/83/36 37/84/37 38/85/38
f 31/70/31 34/79/34 39/87/39 40/90/40
f 34/80/34 33/76/33 41/92/41 39/88/39
f 33/77/33 32/73/32 42/95/42 41/93/41
f 32/74/32 31/71/31 40/91/40 42/96/42
s 0
f 40/91/43 39/89/44 43/97/45 44/98/46
f 39/89/44 41/94/47 45/100/48 43/97/45
f 41/94/49 42/96/50 46/101/51 45/100/48
f 42/96/50 40/91/43 44/98/46 46/101/51
f 44/98/46 43/97/45 36/83/36 35/81/35
f 43/97/45 45/100/48 37/84/37 36/83/36
f 45/100/48 46/101/51 38/85/38 37/84/37
f 46/102/51 44/99/46 35/82/35 38/86/38
