# Blender 3.4.1
# www.blender.org
mtllib Torch&Mount.mtl
o Cone001
v 5.081000 4.644000 -0.618999
v 5.031000 4.644000 -0.581999
v 4.969000 4.644000 -0.581999
v 4.919000 4.644000 -0.618999
v 4.900000 4.644000 -0.677999
v 4.919000 4.644000 -0.735999
v 4.969000 4.644000 -0.772999
v 5.031000 4.644000 -0.772999
v 5.081000 4.644000 -0.735999
v 5.100000 4.644000 -0.677999
v 5.405000 7.144000 -0.970999
v 5.500000 7.144000 -0.677999
v 5.155000 7.144000 -1.152999
v 4.845000 7.144000 -1.152999
v 4.595000 7.144000 -0.970999
v 4.500000 7.144000 -0.677999
v 4.595000 7.144000 -0.383999
v 4.845000 7.144000 -0.201999
v 5.155000 7.144000 -0.201999
v 5.405000 7.144000 -0.383999
v 5.149000 7.344000 -0.568999
v 5.184999 7.344000 -0.677999
v 5.149000 7.344000 -0.785999
v 5.057000 7.344000 -0.852999
v 4.943000 7.344000 -0.852999
v 4.851000 7.344000 -0.785999
v 4.815000 7.344000 -0.677999
v 4.851000 7.344000 -0.568999
v 4.943000 7.344000 -0.501999
v 5.057000 7.344000 -0.501999
v 5.319000 7.244000 -0.909999
v 5.395000 7.244000 -0.677999
v 5.122000 7.244000 -1.052999
v 4.878000 7.244000 -1.052999
v 4.681000 7.244000 -0.909999
v 4.605000 7.244000 -0.677999
v 4.681000 7.244000 -0.444999
v 4.878000 7.244000 -0.301999
v 5.122000 7.244000 -0.301999
v 5.319000 7.244000 -0.444999
vn 0.5763 -0.7018 0.4186
vn 0.2201 -0.7018 0.6775
vn -0.2202 -0.7018 0.6775
vn -0.5763 -0.7018 0.4187
vn -0.7124 -0.7018 0.0001
vn -0.5763 -0.7019 -0.4187
vn -0.2202 -0.7018 -0.6775
vn 0.2202 -0.7018 -0.6775
vn 0.5763 -0.7019 -0.4187
vn 0.7124 -0.7018 0.0001
vn 0.7729 0.2954 -0.5616
vn 0.9554 0.2954 -0.0000
vn 0.2952 0.2954 -0.9086
vn -0.2952 0.2954 -0.9086
vn -0.7729 0.2954 -0.5616
vn -0.9554 0.2954 -0.0000
vn -0.7729 0.2954 0.5616
vn -0.2952 0.2954 0.9086
vn 0.2952 0.2954 0.9086
vn 0.7729 0.2954 0.5616
vn 0.2112 0.9653 0.1535
vn 0.2611 0.9653 -0.0000
vn 0.2112 0.9653 -0.1535
vn 0.0807 0.9653 -0.2483
vn -0.0807 0.9653 -0.2483
vn -0.2112 0.9653 -0.1535
vn -0.2611 0.9653 -0.0000
vn -0.2112 0.9653 0.1535
vn -0.0807 0.9653 0.2483
vn 0.0807 0.9653 0.2483
vn 0.4748 0.8096 -0.3450
vn 0.5869 0.8097 -0.0000
vn 0.1814 0.8096 -0.5582
vn -0.1814 0.8096 -0.5582
vn -0.4748 0.8096 -0.3450
vn -0.5869 0.8096 -0.0000
vn -0.4748 0.8096 0.3450
vn -0.1814 0.8096 0.5582
vn 0.1814 0.8096 0.5582
vn 0.4748 0.8096 0.3450
vn 0.5869 0.8096 -0.0000
vn -0.4748 0.8097 -0.3450
vt 0.105754 0.759132
vt 0.667793 0.716610
vt 0.105754 0.741505
vt 0.734916 0.283389
vt 0.682205 0.716308
vt 0.116205 0.727381
vt 0.454929 0.005862
vt 0.717346 0.283389
vt 0.133062 0.722229
vt 0.440516 0.005559
vt 0.149705 0.727846
vt 0.423095 0.003309
vt 0.159715 0.741952
vt 0.227652 0.005884
vt 0.409420 0.000000
vt 0.159715 0.759579
vt 0.213397 0.005631
vt 0.149263 0.773702
vt 0.195972 0.003379
vt 0.132406 0.778855
vt 0.636697 0.722170
vt 0.182121 0.000000
vt 0.115991 0.773406
vt 0.650372 0.718861
vt 0.454929 0.029262
vt 0.000000 0.692806
vt 0.733782 0.256467
vt 0.524103 0.012575
vt 0.816815 0.283389
vt 0.069269 0.709574
vt 0.682205 0.185620
vt 0.156395 0.720835
vt 0.682205 0.097769
vt 0.227652 0.722229
vt 0.227652 0.692908
vt 0.733782 0.026922
vt 0.296826 0.709595
vt 0.816815 0.000000
vt 0.383664 0.720799
vt 0.900132 0.026922
vt 0.454929 0.722170
vt 0.682205 1.000000
vt 0.951708 0.097769
vt 0.770056 1.000000
vt 0.682205 0.000000
vt 0.951708 0.185620
vt 0.610941 0.001371
vt 0.900132 0.256467
vt 0.847713 0.183920
vt 0.816824 0.194122
vt 0.786218 0.183920
vt 0.767231 0.157848
vt 0.767231 0.125541
vt 0.786218 0.099470
vt 0.816824 0.089268
vt 0.847713 0.099470
vt 0.866700 0.125541
vt 0.866700 0.157848
vt 0.751073 0.232096
vt 0.816819 0.253633
vt 0.710548 0.176268
vt 0.710548 0.107121
vt 0.751073 0.051294
vt 0.816819 0.029756
vt 0.882849 0.051294
vt 0.923374 0.107121
vt 0.923374 0.176268
vt 0.882849 0.232096
s 1
usemtl wire_040022005
f 1/1/1 2/3/2 3/6/3 4/9/4 5/11/5 6/13/6 7/16/7 8/18/8 9/20/9 10/23/10
f 10/24/10 9/21/9 11/25/11 12/28/12
f 9/22/9 8/19/8 13/30/13 11/26/11
f 8/19/8 7/17/7 14/32/14 13/30/13
f 7/17/7 6/14/6 15/34/15 14/32/14
f 6/15/6 5/12/5 16/37/16 15/35/15
f 5/12/5 4/10/4 17/39/17 16/37/16
f 4/10/4 3/7/3 18/41/18 17/39/17
f 3/8/3 2/4/2 19/44/19 18/42/18
f 2/5/2 1/2/1 20/47/20 19/45/19
f 1/2/1 10/24/10 12/28/12 20/47/20
f 21/49/21 22/50/22 23/51/23 24/52/24 25/53/25 26/54/26 27/55/27 28/56/28 29/57/29 30/58/30
s 0
f 12/29/12 11/27/11 31/59/31 32/60/32
f 11/27/11 13/31/13 33/61/33 31/59/31
f 13/31/13 14/33/14 34/62/34 33/61/33
f 14/33/14 15/36/15 35/63/35 34/62/34
f 15/36/15 16/38/16 36/64/36 35/63/35
f 16/38/16 17/40/17 37/65/37 36/64/36
f 17/40/17 18/43/18 38/66/38 37/65/37
f 18/43/18 19/46/19 39/67/39 38/66/38
f 19/46/19 20/48/20 40/68/40 39/67/39
f 20/48/20 12/29/12 32/60/41 40/68/40
f 32/60/41 31/59/31 23/51/23 22/50/22
f 31/59/31 33/61/33 24/52/24 23/51/23
f 33/61/33 34/62/34 25/53/25 24/52/24
f 34/62/34 35/63/42 26/54/26 25/53/25
f 35/63/35 36/64/36 27/55/27 26/54/26
f 36/64/36 37/65/37 28/56/28 27/55/27
f 37/65/37 38/66/38 29/57/29 28/56/28
f 38/66/38 39/67/39 30/58/30 29/57/29
f 39/67/39 40/68/40 21/49/21 30/58/30
f 40/68/40 32/60/41 22/50/22 21/49/21
o Torus001
v 4.983000 5.746000 -1.234999
v 4.983000 5.859000 -1.168999
v 5.273000 5.859000 -1.074999
v 5.311000 5.746000 -1.127999
v 4.983000 5.859000 -1.037999
v 5.195000 5.859000 -0.968999
v 4.983000 5.746000 -0.971999
v 5.157000 5.746000 -0.915999
v 4.983000 5.632000 -1.037999
v 5.195000 5.632000 -0.968999
v 4.983000 5.632000 -1.168999
v 5.273000 5.632000 -1.074999
v 5.452000 5.859000 -0.828999
v 5.514000 5.746000 -0.848999
v 5.327000 5.859000 -0.787999
v 5.264000 5.746000 -0.767999
v 5.327000 5.632000 -0.787999
v 5.452000 5.632000 -0.828999
v 5.452000 5.859000 -0.524999
v 5.514000 5.746000 -0.503999
v 5.327000 5.859000 -0.564999
v 5.264000 5.746000 -0.584999
v 5.327000 5.632000 -0.564999
v 5.452000 5.632000 -0.524999
v 5.273000 5.859000 -0.277999
v 5.311000 5.746000 -0.224999
v 5.195000 5.859000 -0.383999
v 5.157000 5.746000 -0.437999
v 5.195000 5.632000 -0.383999
v 5.273000 5.632000 -0.277999
v 4.983000 5.859000 -0.183999
v 4.983000 5.746000 -0.117999
v 4.983000 5.859000 -0.314999
v 4.983000 5.746000 -0.380999
v 4.983000 5.632000 -0.314999
v 4.983000 5.632000 -0.183999
v 4.693000 5.859000 -0.277999
v 4.655000 5.746000 -0.224999
v 4.771000 5.859000 -0.383999
v 4.809000 5.746000 -0.437999
v 4.771000 5.632000 -0.383999
v 4.693000 5.632000 -0.277999
v 4.515000 5.859000 -0.524999
v 4.452000 5.746000 -0.503999
v 4.639000 5.859000 -0.564999
v 4.702000 5.746000 -0.584999
v 4.639000 5.632000 -0.564999
v 4.515000 5.632000 -0.524999
v 4.515000 5.859000 -0.828999
v 4.452000 5.746000 -0.848999
v 4.639000 5.859000 -0.787999
v 4.702000 5.746000 -0.767999
v 4.639000 5.632000 -0.787999
v 4.515000 5.632000 -0.828999
v 4.693000 5.859000 -1.074999
v 4.655000 5.746000 -1.127999
v 4.771000 5.859000 -0.968999
v 4.809000 5.746000 -0.915999
v 4.771000 5.632000 -0.968999
v 4.693000 5.632000 -1.074999
vn -0.0000 -0.0000 -1.0000
vn -0.0000 0.8234 -0.5675
vn 0.3336 0.8234 -0.4590
vn 0.5878 0.0001 -0.8090
vn -0.0000 0.9085 0.4178
vn -0.2456 0.9086 0.3380
vn -0.0000 -0.0000 1.0000
vn -0.5878 0.0001 0.8090
vn -0.0000 -0.9084 0.4181
vn -0.2456 -0.9085 0.3380
vn -0.0000 -0.8231 -0.5678
vn 0.3337 -0.8233 -0.4592
vn 0.5398 0.8233 -0.1754
vn 0.9511 -0.0000 -0.3090
vn -0.3973 0.9086 0.1291
vn -0.9511 -0.0000 0.3090
vn -0.3970 -0.9087 0.1288
vn 0.5399 -0.8233 -0.1754
vn 0.5398 0.8233 0.1755
vn 0.9511 -0.0000 0.3090
vn -0.3974 0.9085 -0.1291
vn -0.9511 -0.0000 -0.3090
vn -0.3974 -0.9085 -0.1291
vn 0.5398 -0.8233 0.1754
vn 0.3336 0.8233 0.4591
vn 0.5878 -0.0000 0.8090
vn -0.2456 0.9085 -0.3380
vn -0.5878 -0.0000 -0.8090
vn -0.2457 -0.9085 -0.3380
vn 0.3337 -0.8233 0.4592
vn -0.0000 0.8233 0.5675
vn -0.0000 0.9085 -0.4178
vn -0.0000 -0.9085 -0.4178
vn -0.0000 -0.8234 0.5675
vn -0.3336 0.8234 0.4591
vn 0.2456 0.9085 -0.3380
vn 0.5878 -0.0000 -0.8090
vn 0.2457 -0.9085 -0.3380
vn -0.3336 -0.8233 0.4591
vn -0.5398 0.8233 0.1754
vn 0.3974 0.9085 -0.1291
vn 0.3973 -0.9085 -0.1291
vn -0.5398 -0.8233 0.1754
vn -0.5398 0.8233 -0.1754
vn 0.3973 0.9086 0.1291
vn 0.3972 -0.9086 0.1290
vn -0.5399 -0.8233 -0.1754
vn -0.3336 0.8234 -0.4591
vn -0.5878 0.0001 -0.8090
vn 0.2456 0.9086 0.3380
vn 0.5878 0.0001 0.8090
vn 0.2456 -0.9085 0.3380
vn -0.3336 -0.8234 -0.4591
vt 0.454929 0.899087
vt 0.618410 0.899079
vt 0.491498 0.893314
vt 0.797285 0.310176
vt 0.518681 0.963243
vt 0.227652 0.963048
vt 0.770057 0.380053
vt 0.485772 0.978119
vt 0.260473 0.978070
vt 0.618510 0.801307
vt 0.808997 0.340202
vt 0.789117 0.391349
vt 0.841927 0.355323
vt 0.345953 0.779043
vt 0.362074 0.737057
vt 0.825555 0.397157
vt 0.841938 0.788661
vt 0.309133 0.773257
vt 0.840872 0.823216
vt 0.328886 0.722170
vt 0.808861 0.803678
vt 0.840872 0.860340
vt 0.655231 0.893314
vt 0.797084 0.833723
vt 0.655232 0.806922
vt 0.254761 0.893321
vt 0.770056 0.466269
vt 0.649102 0.722169
vt 0.291217 0.898990
vt 0.789079 0.454834
vt 0.825639 0.448912
vt 0.825781 0.746727
vt 0.788930 0.752394
vt 0.682205 0.737142
vt 0.770056 0.764022
vt 0.309133 0.893332
vt 0.254761 0.807171
vt 0.797233 0.535946
vt 0.291217 0.801220
vt 0.585145 0.978119
vt 0.809015 0.505946
vt 0.020074 0.722229
vt 0.841999 0.490856
vt 0.052941 0.737487
vt 0.825781 0.694867
vt 0.788930 0.689198
vt 0.309133 0.807181
vt 0.770056 0.677872
vt 0.618410 0.963255
vt 0.227652 0.737187
vt 0.841307 0.562727
vt 0.260473 0.722170
vt 0.868407 0.581201
vt 0.554659 0.898959
vt 0.841415 0.525432
vt 0.000073 0.773641
vt 0.841938 0.653200
vt 0.036687 0.779187
vt 0.454928 0.889741
vt 0.424632 0.910156
vt 0.808861 0.637895
vt 0.797084 0.607861
vt 0.591387 0.893367
vt 0.885342 0.535940
vt 0.918273 0.551061
vt 0.554622 0.801187
vt 0.873631 0.505914
vt 0.000000 0.836822
vt 0.036574 0.831075
vt 0.431757 0.851216
vt 0.396457 0.863168
vt 0.840872 0.618325
vt 0.840872 0.581201
vt 0.591440 0.806975
vt 0.912570 0.466063
vt 0.585223 0.722170
vt 0.949008 0.471871
vt 0.917737 0.592802
vt 0.019876 0.887932
vt 0.893511 0.454767
vt 0.072932 0.722229
vt 0.052941 0.872991
vt 0.105754 0.737534
vt 0.423005 0.800071
vt 0.385737 0.800904
vt 0.872882 0.637864
vt 0.618410 0.737060
vt 0.884660 0.607819
vt 0.912360 0.379784
vt 0.949008 0.374092
vt 0.948388 0.671852
vt 0.893548 0.391282
vt 0.052941 0.773532
vt 0.089549 0.779200
vt 0.431782 0.756228
vt 0.396521 0.746855
vt 0.892814 0.689147
vt 0.911537 0.677803
vt 0.518681 0.737405
vt 0.885183 0.310107
vt 0.918166 0.295017
vt 0.485804 0.722170
vt 0.948388 0.769621
vt 0.873612 0.340170
vt 0.052941 0.836728
vt 0.454928 0.735970
vt 0.089549 0.831060
vt 0.362074 0.872649
vt 0.424727 0.722170
vt 0.328907 0.887873
vt 0.892814 0.752343
vt 0.911537 0.763953
vt 0.491482 0.806922
vt 0.841320 0.283389
vt 0.917737 0.848702
vt 0.455008 0.801314
vt 0.649018 0.978119
vt 0.072932 0.888011
vt 0.841213 0.320684
vt 0.105754 0.872994
vt 0.868313 0.339159
vt 0.345867 0.830843
vt 0.309139 0.836437
vt 0.872882 0.803646
vt 0.884660 0.833680
vt 0.682205 0.963249
s 1
usemtl wire_055055055
f 41/69/43 42/71/44 43/73/45 44/76/46
f 42/72/44 45/79/47 46/80/48 43/75/45
f 45/79/47 47/81/49 48/84/50 46/80/48
f 47/82/49 49/86/51 50/88/52 48/83/50
f 49/87/51 51/90/53 52/92/54 50/89/52
f 51/91/53 41/70/43 44/78/46 52/93/54
f 44/77/46 43/74/45 53/94/55 54/97/56
f 43/75/45 46/80/48 55/98/57 53/95/55
f 46/80/48 48/84/50 56/99/58 55/98/57
f 48/85/50 50/89/52 57/101/59 56/100/58
f 50/89/52 52/92/54 58/103/60 57/101/59
f 52/93/54 44/78/46 54/96/56 58/102/60
f 54/97/56 53/94/55 59/105/61 60/107/62
f 53/95/55 55/98/57 61/109/63 59/106/61
f 55/98/57 56/99/58 62/111/64 61/109/63
f 56/100/58 57/101/59 63/114/65 62/113/64
f 57/101/59 58/103/60 64/116/66 63/114/65
f 58/104/60 54/97/56 60/107/62 64/115/66
f 60/107/62 59/105/61 65/118/67 66/120/68
f 59/106/61 61/109/63 67/123/69 65/119/67
f 61/110/63 62/112/64 68/126/70 67/124/69
f 62/113/64 63/114/65 69/129/71 68/125/70
f 63/114/65 64/116/66 70/130/72 69/129/71
f 64/117/66 60/108/62 66/122/68 70/131/72
f 66/121/68 65/119/67 71/132/73 72/133/49
f 65/119/67 67/123/69 73/135/74 71/132/73
f 67/124/69 68/126/70 74/137/43 73/136/74
f 68/127/70 69/128/71 75/139/75 74/138/43
f 69/129/71 70/130/72 76/141/76 75/140/75
f 70/131/72 66/122/68 72/134/49 76/142/76
f 72/133/49 71/132/73 77/143/77 78/145/50
f 71/132/73 73/135/74 79/148/78 77/143/77
f 73/136/74 74/137/43 80/150/79 79/147/78
f 74/138/43 75/139/75 81/153/80 80/152/79
f 75/140/75 76/141/76 82/156/81 81/154/80
f 76/142/76 72/134/49 78/144/50 82/155/81
f 78/145/50 77/143/77 83/157/82 84/158/58
f 77/143/77 79/148/78 85/160/83 83/157/82
f 79/149/78 80/151/79 86/162/56 85/161/83
f 80/152/79 81/153/80 87/164/84 86/163/56
f 81/154/80 82/156/81 88/166/85 87/165/84
f 82/156/81 78/146/50 84/159/58 88/166/85
f 84/158/58 83/157/82 89/168/86 90/169/64
f 83/157/82 85/160/83 91/172/87 89/168/86
f 85/161/83 86/162/56 92/175/62 91/173/87
f 86/163/56 87/164/84 93/177/88 92/174/62
f 87/165/84 88/166/85 94/180/89 93/179/88
f 88/166/85 84/159/58 90/171/64 94/180/89
f 90/170/64 89/167/86 95/181/90 96/184/91
f 89/168/86 91/172/87 97/187/92 95/182/90
f 91/173/87 92/175/62 98/188/93 97/186/92
f 92/176/62 93/178/88 99/191/94 98/190/93
f 93/179/88 94/180/89 100/193/95 99/192/94
f 94/180/89 90/171/64 96/183/91 100/193/95
f 96/184/91 95/181/90 42/71/44 41/69/43
f 95/182/90 97/187/92 45/79/47 42/72/44
f 97/187/92 98/189/93 47/81/49 45/79/47
f 98/190/93 99/191/94 49/86/51 47/82/49
f 99/192/94 100/193/95 51/90/53 49/87/51
f 100/194/95 96/185/91 41/70/43 51/91/53
