# Blender v2.93.2 OBJ File: ''
# www.blender.org
mtllib DungeonDoorFixed.mtl
o Box002
v 2.707000 1.102816 -0.513000
v 2.707000 8.328015 -0.512998
v 7.229000 8.328015 -0.512998
v 7.229000 1.102816 -0.513000
v 2.707000 1.102816 -0.013000
v 7.229000 1.102816 -0.013000
v 7.229000 8.328015 -0.012998
v 2.707000 8.328015 -0.012998
vt 0.250930 0.445480
vt 0.250930 0.000000
vt 0.501859 0.000000
vt 0.501859 0.445480
vt 0.250929 0.445480
vt 0.000000 0.445480
vt 0.000000 0.000000
vt 0.250929 0.000000
vt 0.848677 0.554520
vt 0.848677 0.805449
vt 0.820931 0.805449
vt 0.820931 0.554520
vt 0.467843 0.890961
vt 0.467843 0.445480
vt 0.495589 0.445480
vt 0.495589 0.890961
vt 0.876422 0.554520
vt 0.876422 0.805449
vt 0.848677 0.805449
vt 0.848677 0.554520
vt 0.948949 0.445480
vt 0.948949 0.000000
vt 0.976694 0.000000
vt 0.976694 0.445480
vn -0.5774 -0.5774 -0.5774
vn -0.5774 0.5774 -0.5774
vn 0.5774 0.5774 -0.5774
vn 0.5774 -0.5774 -0.5774
vn -0.5774 -0.5774 0.5774
vn 0.5774 -0.5774 0.5774
vn 0.5774 0.5774 0.5774
vn -0.5774 0.5774 0.5774
usemtl wire_040022005.001
s 1
f 1/1/1 2/2/2 3/3/3 4/4/4
f 5/5/5 6/6/6 7/7/7 8/8/8
f 1/9/1 4/10/4 6/11/6 5/12/5
f 4/13/4 3/14/3 7/15/7 6/16/6
f 3/17/3 2/18/2 8/19/8 7/20/7
f 2/21/2 1/22/1 5/23/5 8/24/8
o Box005
v 2.695000 8.408116 -0.003998
v 7.314000 8.408116 -0.003998
v 7.314000 9.997516 -0.003997
v 2.695000 9.997516 -0.003997
v 2.695000 8.408116 -1.000998
v 2.695000 9.997516 -1.000997
v 7.314000 9.997516 -1.000997
v 7.314000 8.408116 -1.000998
v 0.008000 1.007416 -0.010000
v 0.008000 1.007416 -1.005000
v 2.693000 1.007416 -1.005000
v 2.693000 1.007416 -0.010000
v 0.008000 10.001116 -0.009997
v 2.693000 10.001116 -0.009997
v 2.693000 10.001116 -1.004997
v 0.008000 10.001116 -1.004997
v 7.317000 1.007416 -0.010000
v 7.317000 1.007416 -1.005000
v 10.003000 1.007416 -1.005000
v 10.003000 1.007416 -0.010000
v 7.317000 10.001116 -0.009997
v 10.003000 10.001116 -0.009997
v 10.003000 10.001116 -1.004997
v 7.317000 10.001116 -1.004997
vt 0.501859 0.810832
vt 0.501859 0.554520
vt 0.599856 0.554520
vt 0.599856 0.810832
vt 0.369846 0.445480
vt 0.467843 0.445480
vt 0.467843 0.701792
vt 0.369846 0.701792
vt 0.655180 0.554520
vt 0.710504 0.554520
vt 0.710504 0.810832
vt 0.655180 0.810832
vt 0.557183 0.908829
vt 0.501859 0.908829
vt 0.501859 0.810832
vt 0.557183 0.810832
vt 0.655180 0.554520
vt 0.655180 0.810832
vt 0.876256 0.903446
vt 0.820931 0.903446
vt 0.820931 0.805449
vt 0.876256 0.805449
vt 0.369846 0.701792
vt 0.425060 0.701792
vt 0.425060 0.850785
vt 0.369846 0.850785
vt 0.710504 0.852561
vt 0.710504 0.703568
vt 0.765718 0.703568
vt 0.765718 0.852561
vt 0.148993 1.000000
vt 0.000000 1.000000
vt 0.000000 0.445480
vt 0.148993 0.445480
vt 0.369846 1.000000
vt 0.314633 1.000000
vt 0.314633 0.445480
vt 0.369846 0.445480
vt 0.948949 0.554520
vt 0.799956 0.554520
vt 0.799956 0.000000
vt 0.948949 0.000000
vt 0.204206 0.445480
vt 0.259420 0.445480
vt 0.259420 1.000000
vt 0.204206 1.000000
vt 0.710504 0.554520
vt 0.765718 0.554520
vt 0.765718 0.703568
vt 0.710504 0.703568
vt 0.765718 0.703568
vt 0.765718 0.554520
vt 0.820931 0.554520
vt 0.820931 0.703568
vt 0.799956 0.554520
vt 0.650908 0.554520
vt 0.650908 0.000000
vt 0.799956 0.000000
vt 0.314633 1.000000
vt 0.259420 1.000000
vt 0.259420 0.445480
vt 0.314633 0.445480
vt 0.650908 0.554520
vt 0.501859 0.554520
vt 0.501859 0.000000
vt 0.650908 0.000000
vt 0.148993 0.445480
vt 0.204206 0.445480
vt 0.204206 1.000000
vt 0.148993 1.000000
vn -0.5774 -0.5774 0.5774
vn 0.5774 -0.5774 0.5774
vn 0.5774 0.5774 0.5774
vn -0.5774 0.5774 0.5774
vn -0.5774 -0.5774 -0.5774
vn -0.5774 0.5774 -0.5774
vn 0.5774 0.5774 -0.5774
vn 0.5774 -0.5774 -0.5774
usemtl wire_055055055.001
s 1
f 9/25/9 10/26/10 11/27/11 12/28/12
f 13/29/13 14/30/14 15/31/15 16/32/16
f 9/33/9 13/34/13 16/35/16 10/36/10
f 10/37/10 16/38/16 15/39/15 11/40/11
f 11/27/11 15/41/15 14/42/14 12/28/12
f 12/43/12 14/44/14 13/45/13 9/46/9
f 17/47/9 18/48/13 19/49/16 20/50/10
f 21/51/12 22/52/11 23/53/15 24/54/14
f 17/55/9 20/56/10 22/57/11 21/58/12
f 20/59/10 19/60/16 23/61/15 22/62/11
f 19/63/16 18/64/13 24/65/14 23/66/15
f 18/67/13 17/68/9 21/69/12 24/70/14
f 25/71/9 26/72/13 27/73/16 28/74/10
f 29/75/12 30/76/11 31/77/15 32/78/14
f 25/79/9 28/80/10 30/81/11 29/82/12
f 28/83/10 27/84/16 31/85/15 30/86/11
f 27/87/16 26/88/13 32/89/14 31/90/15
f 26/91/13 25/92/9 29/93/12 32/94/14
