# 3ds Max Wavefront OBJ Exporter v0.99 - (c)2007 guruware
# File Created: 03.05.2023 23:52:06

mtllib DungeonWallTall.mtl

#
# object Box003
#

v  -3.0000 0.0000 3.0000
v  -3.0000 0.0000 -3.0000
v  3.0000 0.0000 -3.0000
v  3.0000 0.0000 3.0000
v  -3.0000 0.7000 3.0000
v  3.0000 0.7000 3.0000
v  3.0000 0.7000 -3.0000
v  -3.0000 0.7000 -3.0000
v  -3.0000 0.7000 -2.3000
v  3.0000 0.7000 -2.3000
v  -3.0000 7.7000 -2.3000
v  3.0000 7.7000 -2.3000
v  3.0000 7.7000 -3.0000
v  -3.0000 7.7000 -3.0000
# 14 vertices

vn -0.5774 -0.5774 0.5774
vn -0.5774 -0.5774 -0.5774
vn 0.5774 -0.5774 -0.5774
vn 0.5774 -0.5774 0.5774
vn -0.5774 0.5774 0.5774
vn 0.5774 0.5774 0.5774
vn 0.5774 0.5774 -0.5774
vn -0.5774 0.5774 -0.5774
# 8 vertex normals

vt 1.0000 0.0000 0.0000
vt 1.0000 1.0000 0.0000
vt 0.0000 1.0000 0.0000
vt 0.0000 0.0000 0.0000
# 4 texture coords

o Box003
g Box003
usemtl wire_154154229
s 2
f 1/1/1 2/2/2 3/3/3 4/4/4 
s 4
f 5/4/5 6/1/6 7/2/7 8/3/8 
s 8
f 1/4/1 4/1/4 6/2/6 5/3/5 
s 16
f 4/4/4 3/1/3 7/2/7 6/3/6 
s 32
f 3/4/3 2/1/2 8/2/8 7/3/7 
s 64
f 2/4/2 1/1/1 5/2/5 8/3/8 
s 2
f 9/1/1 8/2/2 7/3/3 10/4/4 
s 4
f 11/4/5 12/1/6 13/2/7 14/3/8 
s 8
f 9/4/1 10/1/4 12/2/6 11/3/5 
s 16
f 10/4/4 7/1/3 13/2/7 12/3/6 
s 32
f 7/4/3 8/1/2 14/2/8 13/3/7 
s 64
f 8/4/2 9/1/1 11/2/5 14/3/8 
# 12 polygons

