# 3ds Max Wavefront OBJ Exporter v0.99 - (c)2007 guruware
# File Created: 03.05.2023 17:16:58

mtllib Seat.mtl

#
# object Cylinder003
#

v  0.6473 0.0000 0.5230
v  0.2444 0.0000 0.8157
v  -0.2537 0.0000 0.8157
v  -0.6566 0.0000 0.5230
v  -0.8105 0.0000 0.0494
v  -0.6566 0.0000 -0.4243
v  -0.2537 0.0000 -0.7170
v  0.2444 0.0000 -0.7170
v  0.6473 0.0000 -0.4243
v  0.8012 0.0000 0.0494
v  0.2221 0.2118 -0.1154
v  0.2757 0.2118 0.0494
v  0.0820 0.2118 -0.2172
v  -0.0913 0.2118 -0.2172
v  -0.2314 0.2118 -0.1154
v  -0.2850 0.2118 0.0494
v  -0.2314 0.2118 0.2141
v  -0.0913 0.2118 0.3160
v  0.0820 0.2118 0.3160
v  0.2221 0.2118 0.2141
v  0.2221 1.1444 -0.1154
v  0.2757 1.1444 0.0494
v  0.0820 1.1444 -0.2172
v  -0.0913 1.1444 -0.2172
v  -0.2314 1.1444 -0.1154
v  -0.2850 1.1444 0.0494
v  -0.2314 1.1444 0.2141
v  -0.0913 1.1444 0.3160
v  0.0820 1.1444 0.3160
v  0.2221 1.1444 0.2141
v  0.6473 1.2306 -0.4243
v  0.8012 1.2306 0.0494
v  0.2444 1.2306 -0.7170
v  -0.2537 1.2306 -0.7170
v  -0.6566 1.2306 -0.4243
v  -0.8105 1.2306 0.0494
v  -0.6566 1.2306 0.5230
v  -0.2537 1.2306 0.8157
v  0.2444 1.2306 0.8157
v  0.6473 1.2306 0.5230
v  0.6473 1.6408 -0.4243
v  0.8012 1.6408 0.0494
v  0.2444 1.6408 -0.7170
v  -0.2537 1.6408 -0.7170
v  -0.6566 1.6408 -0.4243
v  -0.8105 1.6408 0.0494
v  -0.6566 1.6408 0.5230
v  -0.2537 1.6408 0.8157
v  0.2444 1.6408 0.8157
v  0.6473 1.6408 0.5230
# 50 vertices

vn 0.7983 -0.1620 0.5800
vn 0.3049 -0.1620 0.9385
vn -0.3049 -0.1620 0.9385
vn -0.7983 -0.1620 0.5800
vn -0.9868 -0.1620 0.0000
vn -0.7983 -0.1620 -0.5800
vn -0.3049 -0.1620 -0.9385
vn 0.3049 -0.1620 -0.9385
vn 0.7983 -0.1620 -0.5800
vn 0.9868 -0.1620 -0.0000
vn 0.6365 0.6173 -0.4624
vn 0.7867 0.6173 -0.0000
vn 0.2431 0.6173 -0.7483
vn -0.2431 0.6172 -0.7483
vn -0.6365 0.6173 -0.4625
vn -0.7868 0.6173 0.0000
vn -0.6365 0.6172 0.4625
vn -0.2431 0.6172 0.7483
vn 0.2431 0.6172 0.7483
vn 0.6365 0.6173 0.4625
vn 0.5632 -0.7179 -0.4092
vn 0.6962 -0.7179 -0.0000
vn 0.2151 -0.7178 -0.6622
vn -0.2152 -0.7178 -0.6622
vn -0.5632 -0.7178 -0.4092
vn -0.6962 -0.7178 0.0000
vn -0.5633 -0.7178 0.4092
vn -0.2152 -0.7178 0.6622
vn 0.2152 -0.7178 0.6622
vn 0.5632 -0.7178 0.4092
vn 0.6528 -0.5906 -0.4743
vn 0.8069 -0.5906 -0.0000
vn 0.2494 -0.5906 -0.7674
vn -0.2494 -0.5906 -0.7674
vn -0.6528 -0.5906 -0.4743
vn -0.8069 -0.5906 0.0000
vn -0.6528 -0.5906 0.4743
vn -0.2494 -0.5906 0.7674
vn 0.2494 -0.5906 0.7674
vn 0.6528 -0.5906 0.4743
vn 0.6191 0.6437 -0.4498
vn 0.7653 0.6437 -0.0000
vn 0.2365 0.6437 -0.7278
vn -0.2365 0.6437 -0.7278
vn -0.6191 0.6437 -0.4498
vn -0.7653 0.6437 0.0000
vn -0.6191 0.6437 0.4498
vn -0.2365 0.6437 0.7278
vn 0.2365 0.6437 0.7278
vn 0.6191 0.6437 0.4498
# 50 vertex normals

vt 0.3382 0.0000 0.0000
vt 0.1219 0.0000 -0.6180
vt 0.0500 0.0000 -1.0000
vt 0.1500 0.0000 -1.0000
vt 0.3837 0.0000 -0.6180
vt 0.6618 0.0000 -0.0000
vt 0.8781 0.0000 0.6180
vt 0.9500 0.0000 1.0000
vt 0.8500 0.0000 1.0000
vt 0.7500 0.0000 1.0000
vt 0.8500 0.2500 1.0000
vt 0.7500 0.2500 1.0000
vt 0.9500 0.2500 1.0000
vt -0.0500 0.0000 1.0000
vt 0.0500 0.0000 1.0000
vt 0.0500 0.2500 1.0000
vt -0.0500 0.2500 1.0000
vt 0.1500 0.0000 1.0000
vt 0.1500 0.2500 1.0000
vt 0.2500 0.0000 1.0000
vt 0.2500 0.2500 1.0000
vt 0.3500 0.0000 1.0000
vt 0.3500 0.2500 1.0000
vt 0.4500 0.0000 1.0000
vt 0.4500 0.2500 1.0000
vt 0.5500 0.0000 1.0000
vt 0.5500 0.2500 1.0000
vt 0.6500 0.0000 1.0000
vt 0.6500 0.2500 1.0000
vt 0.8500 0.5000 1.0000
vt 0.7500 0.5000 1.0000
vt 0.9500 0.5000 1.0000
vt 0.0500 0.5000 1.0000
vt -0.0500 0.5000 1.0000
vt 0.1500 0.5000 1.0000
vt 0.2500 0.5000 1.0000
vt 0.3500 0.5000 1.0000
vt 0.4500 0.5000 1.0000
vt 0.5500 0.5000 1.0000
vt 0.6500 0.5000 1.0000
vt 0.8500 0.7500 1.0000
vt 0.7500 0.7500 1.0000
vt 0.9500 0.7500 1.0000
vt 0.0500 0.7500 1.0000
vt -0.0500 0.7500 1.0000
vt 0.1500 0.7500 1.0000
vt 0.2500 0.7500 1.0000
vt 0.3500 0.7500 1.0000
vt 0.4500 0.7500 1.0000
vt 0.5500 0.7500 1.0000
vt 0.6500 0.7500 1.0000
vt 0.8500 1.0000 1.0000
vt 0.7500 1.0000 1.0000
vt 0.9500 1.0000 1.0000
vt 0.0500 1.0000 1.0000
vt -0.0500 1.0000 1.0000
vt 0.1500 1.0000 1.0000
vt 0.2500 1.0000 1.0000
vt 0.3500 1.0000 1.0000
vt 0.4500 1.0000 1.0000
vt 0.5500 1.0000 1.0000
vt 0.6500 1.0000 1.0000
vt 0.8781 1.0000 0.6180
vt 0.6618 1.0000 -0.0000
vt 0.3837 1.0000 -0.6180
vt 0.1500 1.0000 -1.0000
vt 0.0500 1.0000 -1.0000
vt 0.1219 1.0000 -0.6180
# 68 texture coords

o Cylinder003
g Cylinder003
usemtl wire_227153153
s 1
f 1/1/1 2/2/2 3/3/3 4/4/4 5/5/5 6/6/6 7/7/7 8/8/8 9/9/9 10/10/10 
s 8
f 10/10/10 9/9/9 11/11/11 12/12/12 
f 9/9/9 8/8/8 13/13/13 11/11/11 
f 8/14/8 7/15/7 14/16/14 13/17/13 
f 7/15/7 6/18/6 15/19/15 14/16/14 
f 6/18/6 5/20/5 16/21/16 15/19/15 
f 5/20/5 4/22/4 17/23/17 16/21/16 
f 4/22/4 3/24/3 18/25/18 17/23/17 
f 3/24/3 2/26/2 19/27/19 18/25/18 
f 2/26/2 1/28/1 20/29/20 19/27/19 
f 1/28/1 10/10/10 12/12/12 20/29/20 
f 12/12/12 11/11/11 21/30/21 22/31/22 
f 11/11/11 13/13/13 23/32/23 21/30/21 
f 13/17/13 14/16/14 24/33/24 23/34/23 
f 14/16/14 15/19/15 25/35/25 24/33/24 
f 15/19/15 16/21/16 26/36/26 25/35/25 
f 16/21/16 17/23/17 27/37/27 26/36/26 
f 17/23/17 18/25/18 28/38/28 27/37/27 
f 18/25/18 19/27/19 29/39/29 28/38/28 
f 19/27/19 20/29/20 30/40/30 29/39/29 
f 20/29/20 12/12/12 22/31/22 30/40/30 
f 22/31/22 21/30/21 31/41/31 32/42/32 
f 21/30/21 23/32/23 33/43/33 31/41/31 
f 23/34/23 24/33/24 34/44/34 33/45/33 
f 24/33/24 25/35/25 35/46/35 34/44/34 
f 25/35/25 26/36/26 36/47/36 35/46/35 
f 26/36/26 27/37/27 37/48/37 36/47/36 
f 27/37/27 28/38/28 38/49/38 37/48/37 
f 28/38/28 29/39/29 39/50/39 38/49/38 
f 29/39/29 30/40/30 40/51/40 39/50/39 
f 30/40/30 22/31/22 32/42/32 40/51/40 
f 32/42/32 31/41/31 41/52/41 42/53/42 
f 31/41/31 33/43/33 43/54/43 41/52/41 
f 33/45/33 34/44/34 44/55/44 43/56/43 
f 34/44/34 35/46/35 45/57/45 44/55/44 
f 35/46/35 36/47/36 46/58/46 45/57/45 
f 36/47/36 37/48/37 47/59/47 46/58/46 
f 37/48/37 38/49/38 48/60/48 47/59/47 
f 38/49/38 39/50/39 49/61/49 48/60/48 
f 39/50/39 40/51/40 50/62/50 49/61/49 
f 40/51/40 32/42/32 42/53/42 50/62/50 
s 1
f 50/62/50 42/53/42 41/52/41 43/54/43 44/63/44 45/64/45 46/65/46 47/66/47 48/67/48 49/68/49 
# 42 polygons

