# 3ds Max Wavefront OBJ Exporter v0.99 - (c)2007 guruware
# File Created: 29.04.2023 17:06:16

mtllib Skull.mtl

#
# object Sphere002
#

v  -0.3453 1.5624 0.3260
v  -1.3873 1.5647 0.1107
v  -0.8394 1.4620 0.4444
v  -0.7551 1.4620 0.5605
v  -0.3464 1.4620 0.6048
v  0.0626 1.4620 0.5605
v  0.1469 1.4620 0.4444
v  0.6485 1.5653 0.1105
v  -0.9758 1.2646 0.4888
v  -0.8394 1.2646 0.6765
v  -0.3464 1.2646 0.7482
v  0.1469 1.2646 0.6765
v  0.2834 1.2646 0.4888
v  -1.1380 0.9790 -0.2275
v  -0.9758 1.0206 0.4888
v  -0.8394 1.0206 0.6765
v  -0.3464 1.0206 0.7482
v  0.1469 1.0206 0.6765
v  0.2834 1.0206 0.4888
v  0.4186 0.9804 -0.2356
v  -0.3453 0.9790 -0.1053
v  -0.3464 0.8232 -0.0027
v  -0.7551 0.8232 0.1850
v  -0.8394 0.8232 0.3010
v  -0.8394 0.8232 0.4444
v  -0.7551 0.8232 0.5605
v  -0.3464 0.8232 0.6048
v  0.0626 0.8232 0.5605
v  0.1469 0.8232 0.4444
v  0.1469 0.8232 0.3010
v  0.0626 0.8232 0.1850
v  -0.3464 0.7478 0.3727
v  -0.3442 3.1199 -0.8024
v  -0.3442 2.8938 -1.4981
v  -1.1364 2.8938 -1.3652
v  -1.3891 2.8938 -1.0174
v  -1.3891 2.8938 -0.5875
v  -1.1364 2.8938 -0.2397
v  -0.3442 2.8938 -0.1068
v  0.4166 2.8938 -0.2397
v  0.6693 2.8938 -0.5875
v  0.6693 2.8938 -1.0174
v  0.4166 2.8938 -1.3652
v  -0.3442 2.3021 -1.9280
v  -1.3891 2.3021 -1.7130
v  -1.7980 2.3021 -1.1502
v  -1.7980 2.3021 -0.4546
v  -1.3891 2.3021 0.1081
v  -0.3442 2.3021 0.3231
v  0.6693 2.3021 0.1081
v  1.0782 2.3021 -0.4546
v  1.0782 2.3021 -1.1502
v  0.6693 2.3021 -1.7130
v  -0.3442 1.5707 -1.9280
v  -1.3891 1.5707 -1.7130
v  -1.7980 1.5707 -1.1502
v  -1.7980 1.5707 -0.4546
v  1.0782 1.5707 -0.4546
v  1.0782 1.5707 -1.1502
v  0.6693 1.5707 -1.7130
v  -0.3442 0.9790 -1.4981
v  -1.1364 0.9790 -1.3652
v  -1.3891 0.9790 -1.0174
v  -1.3891 0.9790 -0.5875
v  0.6693 0.9790 -0.5875
v  0.6693 0.9790 -1.0174
v  0.4166 0.9790 -1.3652
v  -0.3442 0.7530 -0.8024
# 68 vertices

vn 0.0031 0.6207 0.7840
vn -0.6558 -0.1697 0.7356
vn -0.3448 0.7975 0.4950
vn -0.3062 0.7910 0.5298
vn -0.0001 0.7900 0.6130
vn 0.3062 0.7908 0.5300
vn 0.3522 0.7974 0.4900
vn 0.6588 -0.1611 0.7349
vn -0.6794 0.2356 0.6949
vn -0.4986 0.2881 0.8175
vn -0.0000 0.3010 0.9536
vn 0.4986 0.2881 0.8176
vn 0.7000 0.2348 0.6744
vn -0.4755 -0.8516 0.2206
vn -0.8693 -0.2914 0.3992
vn -0.4987 -0.2881 0.8175
vn -0.0000 -0.3010 0.9536
vn 0.4986 -0.2881 0.8175
vn 0.8769 -0.2911 0.3825
vn 0.4802 -0.8494 0.2190
vn -0.0030 -0.9232 -0.3842
vn -0.0012 -0.7822 -0.6230
vn -0.1478 -0.9731 -0.1765
vn -0.2936 -0.9547 -0.0475
vn -0.5444 -0.8204 0.1750
vn -0.2996 -0.8005 0.5191
vn -0.0000 -0.7990 0.6013
vn 0.2996 -0.8005 0.5191
vn 0.5444 -0.8204 0.1750
vn 0.3141 -0.9482 -0.0477
vn 0.1515 -0.9722 -0.1788
vn -0.0000 -0.9991 0.0414
vn 0.0026 1.0000 0.0000
vn 0.0021 0.7934 -0.6087
vn -0.3222 0.7915 -0.5194
vn -0.5627 0.8066 -0.1812
vn -0.5627 0.8066 0.1812
vn -0.3222 0.7915 0.5194
vn 0.0021 0.7934 0.6087
vn 0.3246 0.7907 0.5191
vn 0.5645 0.8051 0.1818
vn 0.5645 0.8051 -0.1818
vn 0.3246 0.7907 -0.5191
vn 0.0028 0.2978 -0.9546
vn -0.5208 0.2897 -0.8030
vn -0.9095 0.2925 -0.2955
vn -0.9095 0.2925 0.2955
vn -0.5211 0.2905 0.8026
vn 0.0029 0.2997 0.9540
vn 0.5268 0.2838 0.8013
vn 0.9095 0.2925 0.2955
vn 0.9095 0.2925 -0.2955
vn 0.5231 0.2898 -0.8015
vn 0.0028 -0.2978 -0.9546
vn -0.5208 -0.2897 -0.8030
vn -0.9095 -0.2925 -0.2955
vn -0.9100 -0.2918 0.2945
vn 0.9070 -0.2913 0.3042
vn 0.9095 -0.2925 -0.2955
vn 0.5231 -0.2898 -0.8015
vn 0.0021 -0.7934 -0.6087
vn -0.3222 -0.7915 -0.5194
vn -0.5627 -0.8066 -0.1812
vn -0.5633 -0.8075 0.1748
vn 0.5644 -0.8057 0.1799
vn 0.5645 -0.8051 -0.1818
vn 0.3246 -0.7907 -0.5191
vn 0.0031 -1.0000 -0.0007
# 68 vertex normals

vt 0.2000 1.0000 0.0000
vt 0.2000 0.7000 0.0000
vt 0.3000 0.8000 0.0000
vt 0.3000 1.0000 0.0000
vt 0.4000 0.8000 0.0000
vt 0.4000 1.0000 0.0000
vt 0.5000 0.8000 0.0000
vt 0.5000 1.0000 0.0000
vt 0.6000 0.8000 0.0000
vt 0.6000 1.0000 0.0000
vt 0.7000 0.8000 0.0000
vt 0.7000 1.0000 0.0000
vt 0.8000 0.7000 0.0000
vt 0.3000 0.6000 0.0000
vt 0.4000 0.6000 0.0000
vt 0.5000 0.6000 0.0000
vt 0.6000 0.6000 0.0000
vt 0.7000 0.6000 0.0000
vt 0.1500 0.4000 0.0000
vt 0.3000 0.4000 0.0000
vt 0.4000 0.4000 0.0000
vt 0.5000 0.4000 0.0000
vt 0.6000 0.4000 0.0000
vt 0.7000 0.4000 0.0000
vt 0.8500 0.4000 0.0000
vt 0.0000 0.4000 0.0000
vt 0.0000 0.2000 0.0000
vt 0.1000 0.2000 0.0000
vt 0.2000 0.2000 0.0000
vt 0.3000 0.2000 0.0000
vt 0.4000 0.2000 0.0000
vt 0.5000 0.2000 0.0000
vt 0.6000 0.2000 0.0000
vt 0.7000 0.2000 0.0000
vt 0.8000 0.2000 0.0000
vt 0.9000 0.2000 0.0000
vt 1.0000 0.2000 0.0000
vt 1.0000 0.4000 0.0000
vt 0.0000 0.0000 0.0000
vt 0.1000 0.0000 0.0000
vt 0.2000 0.0000 0.0000
vt 0.3000 0.0000 0.0000
vt 0.4000 0.0000 0.0000
vt 0.5000 0.0000 0.0000
vt 0.6000 0.0000 0.0000
vt 0.7000 0.0000 0.0000
vt 0.8000 0.0000 0.0000
vt 0.9000 0.0000 0.0000
vt 0.0000 1.0000 0.0000
vt 0.0000 0.8000 0.0000
vt 0.1000 0.8000 0.0000
vt 0.1000 1.0000 0.0000
vt 0.2000 0.8000 0.0000
vt 0.8000 0.8000 0.0000
vt 0.8000 1.0000 0.0000
vt 0.9000 0.8000 0.0000
vt 0.9000 1.0000 0.0000
vt 1.0000 0.8000 0.0000
vt 0.0000 0.6000 0.0000
vt 0.1000 0.6000 0.0000
vt 0.2000 0.6000 0.0000
vt 0.8000 0.6000 0.0000
vt 0.9000 0.6000 0.0000
vt 1.0000 0.6000 0.0000
vt 0.1000 0.4000 0.0000
vt 0.2000 0.4000 0.0000
vt 0.8000 0.4000 0.0000
vt 0.9000 0.4000 0.0000
# 68 texture coords

o Sphere002
g Sphere002
usemtl wire_225198087
s 1
f 1/1/1 2/2/2 3/3/3 
f 1/4/1 3/3/3 4/5/4 
f 1/6/1 4/5/4 5/7/5 
f 1/8/1 5/7/5 6/9/6 
f 1/10/1 6/9/6 7/11/7 
f 1/12/1 7/11/7 8/13/8 
f 2/2/2 9/14/9 3/3/3 
f 3/3/3 9/14/9 10/15/10 4/5/4 
f 4/5/4 10/15/10 11/16/11 5/7/5 
f 5/7/5 11/16/11 12/17/12 6/9/6 
f 6/9/6 12/17/12 13/18/13 7/11/7 
f 7/11/7 13/18/13 8/13/8 
f 2/2/2 14/19/14 15/20/15 9/14/9 
f 9/14/9 15/20/15 16/21/16 10/15/10 
f 10/15/10 16/21/16 17/22/17 11/16/11 
f 11/16/11 17/22/17 18/23/18 12/17/12 
f 12/17/12 18/23/18 19/24/19 13/18/13 
f 13/18/13 19/24/19 20/25/20 8/13/8 
f 21/26/21 22/27/22 23/28/23 14/19/14 
f 23/28/23 24/29/24 14/19/14 
f 14/19/14 24/29/24 25/30/25 15/20/15 
f 15/20/15 25/30/25 26/31/26 16/21/16 
f 16/21/16 26/31/26 27/32/27 17/22/17 
f 17/22/17 27/32/27 28/33/28 18/23/18 
f 18/23/18 28/33/28 29/34/29 19/24/19 
f 19/24/19 29/34/29 30/35/30 20/25/20 
f 30/35/30 31/36/31 20/25/20 
f 20/25/20 31/36/31 22/37/22 21/38/21 
f 32/39/32 23/28/23 22/27/22 
f 32/40/32 24/29/24 23/28/23 
f 32/41/32 25/30/25 24/29/24 
f 32/42/32 26/31/26 25/30/25 
f 32/43/32 27/32/27 26/31/26 
f 32/44/32 28/33/28 27/32/27 
f 32/45/32 29/34/29 28/33/28 
f 32/46/32 30/35/30 29/34/29 
f 32/47/32 31/36/31 30/35/30 
f 32/48/32 22/37/22 31/36/31 
f 33/49/33 34/50/34 35/51/35 
f 33/52/33 35/51/35 36/53/36 
f 33/1/33 36/53/36 37/3/37 
f 33/4/33 37/3/37 38/5/38 
f 33/6/33 38/5/38 39/7/39 
f 33/8/33 39/7/39 40/9/40 
f 33/10/33 40/9/40 41/11/41 
f 33/12/33 41/11/41 42/54/42 
f 33/55/33 42/54/42 43/56/43 
f 33/57/33 43/56/43 34/58/34 
f 34/50/34 44/59/44 45/60/45 35/51/35 
f 35/51/35 45/60/45 46/61/46 36/53/36 
f 36/53/36 46/61/46 47/14/47 37/3/37 
f 37/3/37 47/14/47 48/15/48 38/5/38 
f 38/5/38 48/15/48 49/16/49 39/7/39 
f 39/7/39 49/16/49 50/17/50 40/9/40 
f 40/9/40 50/17/50 51/18/51 41/11/41 
f 41/11/41 51/18/51 52/62/52 42/54/42 
f 42/54/42 52/62/52 53/63/53 43/56/43 
f 43/56/43 53/63/53 44/64/44 34/58/34 
f 44/59/44 54/26/54 55/65/55 45/60/45 
f 45/60/45 55/65/55 56/66/56 46/61/46 
f 46/61/46 56/66/56 57/20/57 47/14/47 
f 47/14/47 57/20/57 2/21/2 48/15/48 
f 48/15/48 2/21/2 1/22/1 49/16/49 
f 49/16/49 1/22/1 8/23/8 50/17/50 
f 50/17/50 8/23/8 58/24/58 51/18/51 
f 51/18/51 58/24/58 59/67/59 52/62/52 
f 52/62/52 59/67/59 60/68/60 53/63/53 
f 53/63/53 60/68/60 54/38/54 44/64/44 
f 54/26/54 61/27/61 62/28/62 55/65/55 
f 55/65/55 62/28/62 63/29/63 56/66/56 
f 56/66/56 63/29/63 64/30/64 57/20/57 
f 57/20/57 64/30/64 14/31/14 2/21/2 
f 8/23/8 20/33/20 65/34/65 58/24/58 
f 58/24/58 65/34/65 66/35/66 59/67/59 
f 59/67/59 66/35/66 67/36/67 60/68/60 
f 60/68/60 67/36/67 61/37/61 54/38/54 
f 68/39/68 62/28/62 61/27/61 
f 68/40/68 63/29/63 62/28/62 
f 68/41/68 64/30/64 63/29/63 
f 68/42/68 14/31/14 64/30/64 
f 68/43/68 21/32/21 14/31/14 
f 68/44/68 20/33/20 21/32/21 
f 68/45/68 65/34/65 20/33/20 
f 68/46/68 66/35/66 65/34/65 
f 68/47/68 67/36/67 66/35/66 
f 68/48/68 61/37/61 67/36/67 
# 46 polygons - 40 triangles

