# 3ds Max Wavefront OBJ Exporter v0.99 - (c)2007 guruware
# File Created: 29.04.2023 16:20:40

mtllib Stalagmite.mtl

#
# object Cone002
#

v  0.7154 0.7186 -0.2000
v  0.2154 0.7186 -0.2000
v  -0.0346 0.7186 -0.6330
v  0.2154 0.7186 -1.0660
v  0.7154 0.7186 -1.0660
v  0.9654 0.7186 -0.6330
v  0.4654 1.9555 -0.6330
v  -3.0059 0.0000 -3.1634
v  2.9941 0.0000 -3.1634
v  2.9941 0.0000 2.8366
v  -3.0059 0.0000 2.8366
v  2.9941 0.7000 2.8366
v  2.9941 0.7000 -3.1634
v  -3.0059 0.7000 -3.1634
v  -3.0059 0.7000 2.8366
v  0.3802 0.7034 -2.4190
v  0.3684 0.7034 -1.5499
v  -0.3902 0.7034 -1.1256
v  -1.1370 0.7034 -1.5704
v  -1.1251 0.7034 -2.4395
v  -0.3665 0.7034 -2.8638
v  -0.3784 1.7158 -1.9947
v  2.4174 0.7034 0.2620
v  1.6658 0.7034 0.2620
v  1.2900 0.7034 -0.3889
v  1.6658 0.7034 -1.0397
v  2.4174 0.7034 -1.0397
v  2.7931 0.7034 -0.3889
v  2.0416 2.5626 -0.3889
v  2.7079 0.7186 -2.5255
v  2.6998 0.7186 -1.9320
v  2.1817 0.7186 -1.6422
v  1.6717 0.7186 -1.9460
v  1.6798 0.7186 -2.5395
v  2.1979 0.7186 -2.8293
v  2.1898 3.7021 -2.2358
v  1.4721 0.7034 -1.1204
v  1.0963 0.7034 -1.1204
v  0.9084 0.7034 -1.4458
v  1.0963 0.7034 -1.7713
v  1.4721 0.7034 -1.7713
v  1.6600 0.7034 -1.4458
v  1.2842 3.7021 -1.4458
v  1.1067 0.7186 -2.1057
v  0.8567 0.7186 -2.1057
v  0.7317 0.7186 -2.3222
v  0.8567 0.7186 -2.5388
v  1.1067 0.7186 -2.5388
v  1.2317 0.7186 -2.3222
v  0.9817 2.7137 -2.3222
# 50 vertices

vn 0.0000 -1.0000 -0.0000
vn 0.9271 0.3748 0.0000
vn 0.4636 0.3748 -0.8029
vn -0.4636 0.3748 -0.8029
vn -0.9271 0.3748 0.0000
vn -0.4636 0.3748 0.8029
vn 0.4636 0.3748 0.8029
vn -0.0000 1.0000 0.0000
vn -0.5774 -0.5774 -0.5774
vn 0.5774 -0.5774 -0.5774
vn 0.5774 -0.5774 0.5774
vn -0.5774 -0.5774 0.5774
vn 0.5774 0.5774 0.5774
vn 0.5774 0.5774 -0.5774
vn -0.5774 0.5774 -0.5774
vn -0.5774 0.5774 0.5774
vn 0.0103 0.6514 -0.7587
vn -0.6519 0.6514 -0.3883
vn -0.6622 0.6514 0.3704
vn -0.0103 0.6514 0.7587
vn 0.6519 0.6514 0.3883
vn 0.6622 0.6514 -0.3704
vn 0.9271 0.3748 -0.0000
vn 0.0000 1.0000 0.0000
vn 0.0134 0.1951 -0.9807
vn -0.8426 0.1951 -0.5019
vn -0.8560 0.1951 0.4788
vn -0.0134 0.1951 0.9807
vn 0.8426 0.1951 0.5019
vn 0.8560 0.1951 -0.4788
vn 0.0000 1.0000 -0.0000
vn 0.9922 0.1243 -0.0000
vn 0.4961 0.1243 -0.8593
vn -0.4961 0.1243 -0.8593
vn -0.9922 0.1243 0.0000
vn -0.4961 0.1243 0.8593
vn 0.4961 0.1243 0.8593
vn -0.0000 1.0000 -0.0000
# 38 vertex normals

vt 0.3333 0.0000 -0.0000
vt 0.0833 0.0000 -1.0000
vt 0.2500 0.0000 -1.0000
vt 0.6667 0.0000 -0.0000
vt 0.9167 0.0000 1.0000
vt 0.7500 0.0000 1.0000
vt 0.5000 1.0000 0.0000
vt -0.0833 0.0000 1.0000
vt 0.0833 0.0000 1.0000
vt 0.2500 0.0000 1.0000
vt 0.4167 0.0000 1.0000
vt 0.5833 0.0000 1.0000
vt 1.0000 1.0000 0.0000
vt 0.0000 1.0000 0.0000
vt 0.0000 0.0000 0.0000
vt 1.0000 0.0000 0.0000
vt 0.6667 0.0000 0.0000
# 17 texture coords

o Cone002
g Cone002
usemtl wire_006135113
s 1
f 1/1/1 2/2/1 3/3/1 4/4/1 5/5/1 6/6/1 
s 8
f 6/6/2 5/5/3 7/7/3 7/7/2 
f 5/8/3 4/9/4 7/7/4 7/7/3 
f 4/9/4 3/10/5 7/7/5 7/7/4 
f 3/10/5 2/11/6 7/7/6 7/7/5 
f 2/11/6 1/12/7 7/7/7 7/7/6 
f 1/12/7 6/6/2 7/7/2 7/7/7 
s 1
f 7/7/8 7/7/8 7/7/8 7/7/8 7/7/8 7/7/8 
s 2
f 8/13/9 9/14/10 10/15/11 11/16/12 
s 4
f 12/16/13 13/13/14 14/14/15 15/15/16 
s 8
f 10/16/11 12/13/13 15/14/16 11/15/12 
s 16
f 9/16/10 13/13/14 12/14/13 10/15/11 
s 32
f 8/16/9 14/13/15 13/14/14 9/15/10 
s 64
f 11/16/12 15/13/16 14/14/15 8/15/9 
s 1
f 16/1/1 17/2/1 18/3/1 19/4/1 20/5/1 21/6/1 
s 8
f 21/6/17 20/5/18 22/7/18 22/7/17 
f 20/8/18 19/9/19 22/7/19 22/7/18 
f 19/9/19 18/10/20 22/7/20 22/7/19 
f 18/10/20 17/11/21 22/7/21 22/7/20 
f 17/11/21 16/12/22 22/7/22 22/7/21 
f 16/12/22 21/6/17 22/7/17 22/7/22 
s 1
f 22/7/8 22/7/8 22/7/8 22/7/8 22/7/8 22/7/8 
f 23/1/1 24/2/1 25/3/1 26/4/1 27/5/1 28/6/1 
s 8
f 28/6/23 27/5/3 29/7/3 29/7/23 
f 27/8/3 26/9/4 29/7/4 29/7/3 
f 26/9/4 25/10/5 29/7/5 29/7/4 
f 25/10/5 24/11/6 29/7/6 29/7/5 
f 24/11/6 23/12/7 29/7/7 29/7/6 
f 23/12/7 28/6/23 29/7/23 29/7/7 
s 1
f 29/7/24 29/7/24 29/7/24 29/7/24 29/7/24 29/7/24 
f 30/1/1 31/2/1 32/3/1 33/17/1 34/5/1 35/6/1 
s 8
f 35/6/25 34/5/26 36/7/26 36/7/25 
f 34/8/26 33/9/27 36/7/27 36/7/26 
f 33/9/27 32/10/28 36/7/28 36/7/27 
f 32/10/28 31/11/29 36/7/29 36/7/28 
f 31/11/29 30/12/30 36/7/30 36/7/29 
f 30/12/30 35/6/25 36/7/25 36/7/30 
s 1
f 36/7/31 36/7/31 36/7/31 36/7/31 36/7/31 36/7/31 
f 37/1/1 38/2/1 39/3/1 40/17/1 41/5/1 42/6/1 
s 8
f 42/6/32 41/5/33 43/7/33 43/7/32 
f 41/8/33 40/9/34 43/7/34 43/7/33 
f 40/9/34 39/10/35 43/7/35 43/7/34 
f 39/10/35 38/11/36 43/7/36 43/7/35 
f 38/11/36 37/12/37 43/7/37 43/7/36 
f 37/12/37 42/6/32 43/7/32 43/7/37 
s 1
f 43/7/38 43/7/38 43/7/38 43/7/38 43/7/38 43/7/38 
f 44/1/1 45/2/1 46/3/1 47/17/1 48/5/1 49/6/1 
s 8
f 49/6/32 48/5/33 50/7/33 50/7/32 
f 48/8/33 47/9/34 50/7/34 50/7/33 
f 47/9/34 46/10/35 50/7/35 50/7/34 
f 46/10/35 45/11/36 50/7/36 50/7/35 
f 45/11/36 44/12/37 50/7/37 50/7/36 
f 44/12/37 49/6/32 50/7/32 50/7/37 
s 1
f 50/7/24 50/7/24 50/7/24 50/7/24 50/7/24 50/7/24 
# 54 polygons

