# 3ds Max Wavefront OBJ Exporter v0.99 - (c)2007 guruware
# File Created: 29.04.2023 13:46:39

mtllib TorchWithMount.mtl

#
# object Cone001
#

v  -0.3891 2.9531 0.0377
v  -0.4216 2.9410 0.0577
v  -0.4586 2.9272 0.0507
v  -0.4827 2.9182 0.0200
v  -0.4827 2.9182 -0.0200
v  -0.4586 2.9272 -0.0507
v  -0.4216 2.9410 -0.0577
v  -0.3891 2.9531 -0.0377
v  -0.3762 2.9579 -0.0000
v  -0.6616 3.9541 -0.1167
v  -0.6218 3.9689 -0.0000
v  -0.7624 3.9165 -0.1788
v  -0.8770 3.8738 -0.1572
v  -0.9518 3.8459 -0.0621
v  -0.9518 3.8459 0.0621
v  -0.8770 3.8738 0.1572
v  -0.7624 3.9165 0.1788
v  -0.6616 3.9541 0.1167
v  -0.7143 4.0590 -0.1060
v  -0.6781 4.0725 -0.0000
v  -0.8058 4.0249 -0.1624
v  -0.9100 3.9861 -0.1428
v  -0.9779 3.9608 -0.0564
v  -0.9779 3.9608 0.0564
v  -0.9100 3.9861 0.1428
v  -0.8058 4.0249 0.1624
v  -0.7143 4.0590 0.1060
v  -0.7837 4.1485 -0.0776
v  -0.7572 4.1584 -0.0000
v  -0.8508 4.1235 -0.1190
v  -0.9270 4.0951 -0.1046
v  -0.9768 4.0766 -0.0413
v  -0.9768 4.0766 0.0413
v  -0.9270 4.0951 0.1046
v  -0.8508 4.1235 0.1190
v  -0.7837 4.1485 0.0776
v  -0.6197 3.4550 -0.2779
v  -0.6470 3.5283 -0.2480
v  -0.4827 3.5895 -0.1754
v  -0.4355 3.5236 -0.1965
v  -0.6537 3.5464 -0.1808
v  -0.5339 3.5910 -0.1279
v  -0.6348 3.4957 -0.1270
v  -0.5507 3.5270 -0.0898
v  -0.6045 3.4144 -0.1270
v  -0.5204 3.4457 -0.0898
v  -0.5856 3.3637 -0.1808
v  -0.4658 3.4083 -0.1279
v  -0.5924 3.3818 -0.2480
v  -0.4281 3.4430 -0.1754
v  -0.4146 3.6149 -0.0000
v  -0.3593 3.5521 -0.0000
v  -0.4843 3.6095 -0.0000
v  -0.5159 3.5400 -0.0000
v  -0.4856 3.4587 -0.0000
v  -0.4162 3.4268 -0.0000
v  -0.3600 3.4684 -0.0000
v  -0.4827 3.5895 0.1754
v  -0.4355 3.5236 0.1965
v  -0.5339 3.5910 0.1279
v  -0.5507 3.5270 0.0898
v  -0.5204 3.4457 0.0898
v  -0.4658 3.4083 0.1279
v  -0.4281 3.4430 0.1754
v  -0.6470 3.5283 0.2480
v  -0.6197 3.4550 0.2779
v  -0.6537 3.5464 0.1808
v  -0.6348 3.4957 0.1270
v  -0.6045 3.4144 0.1270
v  -0.5856 3.3637 0.1808
v  -0.5924 3.3818 0.2480
v  -0.8113 3.4670 0.1754
v  -0.8038 3.3864 0.1965
v  -0.7736 3.5017 0.1279
v  -0.7190 3.4643 0.0898
v  -0.6887 3.3830 0.0898
v  -0.7055 3.3190 0.1279
v  -0.7567 3.3205 0.1754
v  -0.8794 3.4417 -0.0000
v  -0.8801 3.3580 -0.0000
v  -0.8232 3.4832 -0.0000
v  -0.7538 3.4513 -0.0000
v  -0.7235 3.3700 -0.0000
v  -0.7551 3.3005 -0.0000
v  -0.8248 3.2951 -0.0000
v  -0.8113 3.4670 -0.1754
v  -0.8038 3.3864 -0.1965
v  -0.7736 3.5017 -0.1279
v  -0.7190 3.4643 -0.0898
v  -0.6887 3.3830 -0.0898
v  -0.7055 3.3190 -0.1279
v  -0.7567 3.3205 -0.1754
# 92 vertices

vn 0.5607 -0.6814 0.4705
vn 0.1271 -0.6814 0.7208
vn -0.3660 -0.6814 0.6339
vn -0.6878 -0.6814 0.2503
vn -0.6878 -0.6814 -0.2503
vn -0.3660 -0.6814 -0.6339
vn 0.1271 -0.6814 -0.7208
vn 0.5607 -0.6814 -0.4705
vn 0.7319 -0.6814 0.0000
vn 0.7660 0.0111 -0.6427
vn 0.9999 0.0111 -0.0000
vn 0.1736 0.0111 -0.9847
vn -0.5000 0.0111 -0.8660
vn -0.9396 0.0111 -0.3420
vn -0.9396 0.0111 0.3420
vn -0.5000 0.0111 0.8660
vn 0.1736 0.0111 0.9847
vn 0.7660 0.0111 0.6427
vn 0.7407 0.2549 -0.6216
vn 0.9670 0.2549 -0.0000
vn 0.1679 0.2549 -0.9523
vn -0.4835 0.2549 -0.8374
vn -0.9086 0.2549 -0.3307
vn -0.9086 0.2549 0.3307
vn -0.4835 0.2549 0.8374
vn 0.1679 0.2549 0.9523
vn 0.7407 0.2549 0.6216
vn 0.4839 0.7753 -0.4060
vn 0.6317 0.7753 0.0000
vn 0.1097 0.7753 -0.6221
vn -0.3158 0.7753 -0.5470
vn -0.5936 0.7753 -0.2160
vn -0.5936 0.7753 0.2160
vn -0.3158 0.7753 0.5470
vn 0.1097 0.7753 0.6221
vn 0.4839 0.7753 0.4060
vn -0.0000 0.0000 -1.0000
vn 0.0000 0.6855 -0.7281
vn 0.5149 0.6855 -0.5149
vn 0.7071 0.0000 -0.7071
vn -0.0000 0.9920 0.1260
vn -0.0891 0.9920 0.0891
vn -0.0000 0.4191 0.9080
vn -0.6420 0.4191 0.6420
vn -0.0000 -0.4191 0.9080
vn -0.6420 -0.4191 0.6420
vn 0.0000 -0.9920 0.1260
vn -0.0891 -0.9920 0.0891
vn 0.0000 -0.6855 -0.7281
vn 0.5149 -0.6855 -0.5149
vn 0.7281 0.6855 -0.0000
vn 1.0000 0.0000 -0.0000
vn -0.1260 0.9920 -0.0000
vn -0.9080 0.4191 -0.0000
vn -0.9080 -0.4191 -0.0000
vn -0.1260 -0.9920 -0.0000
vn 0.7281 -0.6855 -0.0000
vn 0.5149 0.6855 0.5149
vn 0.7071 0.0000 0.7071
vn -0.0891 0.9920 -0.0891
vn -0.6420 0.4191 -0.6420
vn -0.6420 -0.4191 -0.6420
vn -0.0891 -0.9920 -0.0891
vn 0.5149 -0.6855 0.5149
vn -0.0000 0.6855 0.7281
vn 0.0000 0.0000 1.0000
vn -0.0000 0.9920 -0.1260
vn 0.0000 0.4191 -0.9080
vn 0.0000 -0.4191 -0.9080
vn 0.0000 -0.9920 -0.1260
vn -0.0000 -0.6855 0.7281
vn -0.5149 0.6855 0.5149
vn -0.7071 -0.0000 0.7071
vn 0.0891 0.9920 -0.0891
vn 0.6420 0.4191 -0.6420
vn 0.6420 -0.4191 -0.6420
vn 0.0891 -0.9920 -0.0891
vn -0.5149 -0.6855 0.5149
vn -0.7281 0.6855 -0.0000
vn -1.0000 -0.0000 -0.0000
vn 0.1260 0.9920 0.0000
vn 0.9080 0.4190 0.0000
vn 0.9080 -0.4191 0.0000
vn 0.1260 -0.9920 0.0000
vn -0.7281 -0.6855 -0.0000
vn -0.5149 0.6855 -0.5149
vn -0.7071 -0.0000 -0.7071
vn 0.0891 0.9920 0.0891
vn 0.6420 0.4190 0.6420
vn 0.6420 -0.4191 0.6420
vn 0.0891 -0.9920 0.0891
vn -0.5149 -0.6855 -0.5149
# 92 vertex normals

vt 0.2630 0.0000 -0.0253
vt 0.0559 0.0000 -0.1117
vt 0.0566 0.0000 -0.1459
vt 0.2647 0.0000 -0.1117
vt 0.5830 0.0000 -0.0253
vt 0.8624 0.0000 0.0729
vt 0.9722 0.0000 0.1371
vt 0.8611 0.0000 0.1371
vt 0.7500 0.0000 0.1371
vt 0.8611 0.3333 0.4247
vt 0.7500 0.3333 0.4247
vt 0.9722 0.3333 0.4247
vt -0.0278 0.0000 0.1371
vt 0.0833 0.0000 0.1371
vt 0.0833 0.3333 0.4247
vt -0.0278 0.3333 0.4247
vt 0.1944 0.0000 0.1371
vt 0.1944 0.3333 0.4247
vt 0.3056 0.0000 0.1371
vt 0.3056 0.3333 0.4247
vt 0.4167 0.0000 0.1371
vt 0.4167 0.3333 0.4247
vt 0.5278 0.0000 0.1371
vt 0.5278 0.3333 0.4247
vt 0.6389 0.0000 0.1371
vt 0.6389 0.3333 0.4247
vt 0.8611 0.6667 0.7124
vt 0.7500 0.6667 0.7124
vt 0.9722 0.6667 0.7124
vt 0.0833 0.6667 0.7124
vt -0.0278 0.6667 0.7124
vt 0.1944 0.6667 0.7124
vt 0.3056 0.6667 0.7124
vt 0.4167 0.6667 0.7124
vt 0.5278 0.6667 0.7124
vt 0.6389 0.6667 0.7124
vt 0.8611 1.0000 1.0000
vt 0.7500 1.0000 1.0000
vt 0.9722 1.0000 1.0000
vt 0.0833 1.0000 1.0000
vt -0.0278 1.0000 1.0000
vt 0.1944 1.0000 1.0000
vt 0.3056 1.0000 1.0000
vt 0.4167 1.0000 1.0000
vt 0.5278 1.0000 1.0000
vt 0.6389 1.0000 1.0000
vt 0.8624 1.0000 0.5321
vt 0.5830 1.0000 -0.1848
vt 0.2647 1.0000 -0.8152
vt 0.0566 1.0000 -1.0642
vt 0.0559 1.0000 -0.8152
vt 0.0000 0.0000 0.0000
vt 0.1429 0.0000 0.0000
vt 0.1429 0.1250 0.0000
vt 0.0000 0.1250 0.0000
vt 0.2857 0.0000 0.0000
vt 0.2857 0.1250 0.0000
vt 0.4286 0.0000 0.0000
vt 0.4286 0.1250 0.0000
vt 0.5714 0.0000 0.0000
vt 0.5714 0.1250 0.0000
vt 0.7143 0.0000 0.0000
vt 0.7143 0.1250 0.0000
vt 0.8571 0.0000 0.0000
vt 0.8571 0.1250 0.0000
vt 1.0000 0.0000 0.0000
vt 1.0000 0.1250 0.0000
vt 0.1429 0.2500 0.0000
vt 0.0000 0.2500 0.0000
vt 0.2857 0.2500 0.0000
vt 0.4286 0.2500 0.0000
vt 0.5714 0.2500 0.0000
vt 0.7143 0.2500 0.0000
vt 0.8571 0.2500 0.0000
vt 1.0000 0.2500 0.0000
vt 0.1429 0.3750 0.0000
vt 0.0000 0.3750 0.0000
vt 0.2857 0.3750 0.0000
vt 0.4286 0.3750 0.0000
vt 0.5714 0.3750 0.0000
vt 0.7143 0.3750 0.0000
vt 0.8571 0.3750 0.0000
vt 1.0000 0.3750 0.0000
vt 0.1429 0.5000 0.0000
vt 0.0000 0.5000 0.0000
vt 0.2857 0.5000 0.0000
vt 0.4286 0.5000 0.0000
vt 0.5714 0.5000 0.0000
vt 0.7143 0.5000 0.0000
vt 0.8571 0.5000 0.0000
vt 1.0000 0.5000 0.0000
vt 0.1429 0.6250 0.0000
vt 0.0000 0.6250 0.0000
vt 0.2857 0.6250 0.0000
vt 0.4286 0.6250 0.0000
vt 0.5714 0.6250 0.0000
vt 0.7143 0.6250 0.0000
vt 0.8571 0.6250 0.0000
vt 1.0000 0.6250 0.0000
vt 0.1429 0.7500 0.0000
vt 0.0000 0.7500 0.0000
vt 0.2857 0.7500 0.0000
vt 0.4286 0.7500 0.0000
vt 0.5714 0.7500 0.0000
vt 0.7143 0.7500 0.0000
vt 0.8571 0.7500 0.0000
vt 1.0000 0.7500 0.0000
vt 0.1429 0.8750 0.0000
vt 0.0000 0.8750 0.0000
vt 0.2857 0.8750 0.0000
vt 0.4286 0.8750 0.0000
vt 0.5714 0.8750 0.0000
vt 0.7143 0.8750 0.0000
vt 0.8571 0.8750 0.0000
vt 1.0000 0.8750 0.0000
vt 0.1429 1.0000 0.0000
vt 0.0000 1.0000 0.0000
vt 0.2857 1.0000 0.0000
vt 0.4286 1.0000 0.0000
vt 0.5714 1.0000 0.0000
vt 0.7143 1.0000 0.0000
vt 0.8571 1.0000 0.0000
vt 1.0000 1.0000 0.0000
# 123 texture coords

o Cone001
g Cone001
usemtl wire_177088027
s 1
f 1/1/1 2/2/2 3/3/3 4/4/4 5/5/5 6/6/6 7/7/7 8/8/8 9/9/9 
s 8
f 9/9/9 8/8/8 10/10/10 11/11/11 
f 8/8/8 7/7/7 12/12/12 10/10/10 
f 7/13/7 6/14/6 13/15/13 12/16/12 
f 6/14/6 5/17/5 14/18/14 13/15/13 
f 5/17/5 4/19/4 15/20/15 14/18/14 
f 4/19/4 3/21/3 16/22/16 15/20/15 
f 3/21/3 2/23/2 17/24/17 16/22/16 
f 2/23/2 1/25/1 18/26/18 17/24/17 
f 1/25/1 9/9/9 11/11/11 18/26/18 
f 11/11/11 10/10/10 19/27/19 20/28/20 
f 10/10/10 12/12/12 21/29/21 19/27/19 
f 12/16/12 13/15/13 22/30/22 21/31/21 
f 13/15/13 14/18/14 23/32/23 22/30/22 
f 14/18/14 15/20/15 24/33/24 23/32/23 
f 15/20/15 16/22/16 25/34/25 24/33/24 
f 16/22/16 17/24/17 26/35/26 25/34/25 
f 17/24/17 18/26/18 27/36/27 26/35/26 
f 18/26/18 11/11/11 20/28/20 27/36/27 
f 20/28/20 19/27/19 28/37/28 29/38/29 
f 19/27/19 21/29/21 30/39/30 28/37/28 
f 21/31/21 22/30/22 31/40/31 30/41/30 
f 22/30/22 23/32/23 32/42/32 31/40/31 
f 23/32/23 24/33/24 33/43/33 32/42/32 
f 24/33/24 25/34/25 34/44/34 33/43/33 
f 25/34/25 26/35/26 35/45/35 34/44/34 
f 26/35/26 27/36/27 36/46/36 35/45/35 
f 27/36/27 20/28/20 29/38/29 36/46/36 
s 1
f 36/46/36 29/38/29 28/37/28 30/39/30 31/47/31 32/48/32 33/49/33 34/50/34 35/51/35 
f 37/52/37 38/53/38 39/54/39 40/55/40 
f 38/53/38 41/56/41 42/57/42 39/54/39 
f 41/56/41 43/58/43 44/59/44 42/57/42 
f 43/58/43 45/60/45 46/61/46 44/59/44 
f 45/60/45 47/62/47 48/63/48 46/61/46 
f 47/62/47 49/64/49 50/65/50 48/63/48 
f 49/64/49 37/66/37 40/67/40 50/65/50 
f 40/55/40 39/54/39 51/68/51 52/69/52 
f 39/54/39 42/57/42 53/70/53 51/68/51 
f 42/57/42 44/59/44 54/71/54 53/70/53 
f 44/59/44 46/61/46 55/72/55 54/71/54 
f 46/61/46 48/63/48 56/73/56 55/72/55 
f 48/63/48 50/65/50 57/74/57 56/73/56 
f 50/65/50 40/67/40 52/75/52 57/74/57 
f 52/69/52 51/68/51 58/76/58 59/77/59 
f 51/68/51 53/70/53 60/78/60 58/76/58 
f 53/70/53 54/71/54 61/79/61 60/78/60 
f 54/71/54 55/72/55 62/80/62 61/79/61 
f 55/72/55 56/73/56 63/81/63 62/80/62 
f 56/73/56 57/74/57 64/82/64 63/81/63 
f 57/74/57 52/75/52 59/83/59 64/82/64 
f 59/77/59 58/76/58 65/84/65 66/85/66 
f 58/76/58 60/78/60 67/86/67 65/84/65 
f 60/78/60 61/79/61 68/87/68 67/86/67 
f 61/79/61 62/80/62 69/88/69 68/87/68 
f 62/80/62 63/81/63 70/89/70 69/88/69 
f 63/81/63 64/82/64 71/90/71 70/89/70 
f 64/82/64 59/83/59 66/91/66 71/90/71 
f 66/85/66 65/84/65 72/92/72 73/93/73 
f 65/84/65 67/86/67 74/94/74 72/92/72 
f 67/86/67 68/87/68 75/95/75 74/94/74 
f 68/87/68 69/88/69 76/96/76 75/95/75 
f 69/88/69 70/89/70 77/97/77 76/96/76 
f 70/89/70 71/90/71 78/98/78 77/97/77 
f 71/90/71 66/91/66 73/99/73 78/98/78 
f 73/93/73 72/92/72 79/100/79 80/101/80 
f 72/92/72 74/94/74 81/102/81 79/100/79 
f 74/94/74 75/95/75 82/103/82 81/102/81 
f 75/95/75 76/96/76 83/104/83 82/103/82 
f 76/96/76 77/97/77 84/105/84 83/104/83 
f 77/97/77 78/98/78 85/106/85 84/105/84 
f 78/98/78 73/99/73 80/107/80 85/106/85 
f 80/101/80 79/100/79 86/108/86 87/109/87 
f 79/100/79 81/102/81 88/110/88 86/108/86 
f 81/102/81 82/103/82 89/111/89 88/110/88 
f 82/103/82 83/104/83 90/112/90 89/111/89 
f 83/104/83 84/105/84 91/113/91 90/112/90 
f 84/105/84 85/106/85 92/114/92 91/113/91 
f 85/106/85 80/107/80 87/115/87 92/114/92 
f 87/109/87 86/108/86 38/116/38 37/117/37 
f 86/108/86 88/110/88 41/118/41 38/116/38 
f 88/110/88 89/111/89 43/119/43 41/118/41 
f 89/111/89 90/112/90 45/120/45 43/119/43 
f 90/112/90 91/113/91 47/121/47 45/120/45 
f 91/113/91 92/114/92 49/122/49 47/121/47 
f 92/114/92 87/115/87 37/123/37 49/122/49 
# 85 polygons

